<?xml version="1.0" encoding="UTF-8" standalone="no"?>
<svg
   xmlns:dc="http://purl.org/dc/elements/1.1/"
   xmlns:cc="http://creativecommons.org/ns#"
   xmlns:rdf="http://www.w3.org/1999/02/22-rdf-syntax-ns#"
   xmlns:svg="http://www.w3.org/2000/svg"
   xmlns="http://www.w3.org/2000/svg"
   xmlns:sodipodi="http://sodipodi.sourceforge.net/DTD/sodipodi-0.dtd"
   xmlns:inkscape="http://www.inkscape.org/namespaces/inkscape"
   version="1.1"
   x="0px"
   y="0px"
   viewBox="0 0 512 512"
   enable-background="new 0 0 100 100"
   xml:space="preserve"
   id="svg8"
   sodipodi:docname="pen-tool.svg"
   width="512"
   height="512"
   inkscape:version="0.92.1 r15371"
   inkscape:export-xdpi="96"
   inkscape:export-ydpi="96"><metadata
     id="metadata14"><rdf:RDF><cc:Work
         rdf:about=""><dc:format>image/svg+xml</dc:format><dc:type
           rdf:resource="http://purl.org/dc/dcmitype/StillImage" /><dc:title></dc:title></cc:Work></rdf:RDF></metadata><defs
     id="defs12" /><sodipodi:namedview
     pagecolor="#ffffff"
     bordercolor="#666666"
     borderopacity="1"
     objecttolerance="10"
     gridtolerance="10"
     guidetolerance="10"
     inkscape:pageopacity="0"
     inkscape:pageshadow="2"
     inkscape:window-width="1920"
     inkscape:window-height="1057"
     id="namedview10"
     showgrid="false"
     inkscape:zoom="0.944"
     inkscape:cx="269.26576"
     inkscape:cy="231.87866"
     inkscape:window-x="3832"
     inkscape:window-y="-8"
     inkscape:window-maximized="1"
     inkscape:current-layer="svg8"
     inkscape:pagecheckerboard="false"
     units="mm" /><path
     d="m 329.29717,14.856313 2.53167,-5.1460593 156.07517,141.4257163 -4.90337,3.01151 c -0.2813,0.353 -0.58467,0.66188 -0.98731,0.89905 l -54.94097,33.81621 c -2.91775,1.80359 -8.46094,0.3861 -12.33842,-3.13839 L 304.57071,85.919403 c -3.89402,-3.52446 -5.81897,-8.89667 -4.32424,-11.96885 l 28.25095,-57.99663 c 0.20407,-0.44125 0.47985,-0.78873 0.79975,-1.09761 z m 37.34618,325.547757 4.56141,-13.70077 39.79512,-119.51772 -7.04895,-6.38708 -113.29058,-102.650977 -7.04895,-6.38708 -115.42515,51.543347 -12.79068,5.69763 c -4.76548,2.14006 -10.24799,7.86526 -12.17296,12.72452 l -15.00796,38.01359 -91.669435,232.04163 -11.5607,29.24375 c -1.91392,4.8758 -0.63429,11.43938 2.8626,14.62741 0.0606,0.0496 0.14344,0.0827 0.22614,0.14344 -0.0171,0.0171 -0.0331,0.0275 -0.0331,0.0275 l 6.1499,5.57077 6.39811,-7.04342 174.602085,-192.70433 11.73722,-12.96169 c -6.37052,-11.0257 -5.38874,-25.27803 3.61824,-35.22268 11.16358,-12.32187 30.20348,-13.25399 42.53086,-2.09041 12.31085,11.16911 13.25951,30.19797 2.09042,42.53638 -9.007,9.94463 -23.09938,12.32186 -34.68216,7.05997 l -14.71563,16.23244 -171.629185,189.43356 -6.38708,7.04895 5.75829,5.20675 c 0.0103,-0.0275 0.0386,-0.0275 0.0606,-0.0829 0.1765,0.2096 0.33094,0.43023 0.54605,0.62879 3.49138,3.1494 10.15423,3.80576 14.80389,1.40096 l 25.02983,-12.85689 v 0 L 238.93489,413.49677 355.1708,353.76826 c 4.64415,-2.39378 9.81228,-8.42785 11.47247,-13.36433 z"
     id="path2"
     inkscape:connector-curvature="0"
     style="fill:#f0a30a;stroke-width:5.51560831;fill-opacity:1"
     inkscape:export-xdpi="292.26001"
     inkscape:export-ydpi="292.26001" /></svg>